<?xml version="1.0" standalone="no"?>
<!DOCTYPE svg PUBLIC "-//W3C//DTD SVG 20010904//EN"
 "http://www.w3.org/TR/2001/REC-SVG-20010904/DTD/svg10.dtd">
<svg version="1.0" xmlns="http://www.w3.org/2000/svg"
 width="194.000000pt" height="194.000000pt" viewBox="0 0 194.000000 194.000000"
 preserveAspectRatio="xMidYMid meet">
<metadata>
Created by potrace 1.14, written by Peter Selinger 2001-2017
</metadata>
<g transform="translate(0.000000,194.000000) scale(0.100000,-0.100000)"
fill="#000000" stroke="none">
<path d="M369 1556 c-87 -31 -155 -93 -193 -175 -20 -43 -21 -63 -21 -306 l0
-260 33 -67 c52 -107 141 -164 271 -175 l70 -6 52 -91 c29 -50 58 -99 65 -109
10 -16 19 -6 75 92 l63 111 206 1 c113 0 304 4 425 7 215 7 221 8 265 34 89
52 141 129 161 234 7 36 10 141 7 269 -3 200 -5 213 -29 265 -32 68 -90 128
-155 160 l-49 25 -605 2 c-479 2 -613 0 -641 -11z m1035 -303 l206 -98 -2 -84
-3 -84 -195 -93 c-107 -51 -201 -93 -208 -94 -10 0 -12 22 -10 91 l3 91 95 40
c52 22 98 43 102 47 4 3 -49 35 -118 70 -68 35 -126 62 -129 60 -2 -3 -44 -94
-94 -204 l-90 -200 -73 -3 -73 -3 -213 102 -212 102 0 79 0 79 123 58 c67 32
155 75 196 95 41 20 80 36 88 36 10 0 13 -21 13 -89 l0 -89 -105 -43 c-58 -24
-105 -46 -105 -49 0 -7 250 -134 255 -129 4 4 138 298 171 377 l14 32 79 0 78
0 207 -97z"/>
</g>
</svg>
